<svg xmlns="http://www.w3.org/2000/svg" xmlns:xlink="http://www.w3.org/1999/xlink" width="0" height="0" style="display:none;"><symbol viewBox="0 0 24 24" id="home-2-line"><path d="M19 21H5C4.44772 21 4 20.5523 4 20V11L1 11L11.3273 1.6115C11.7087 1.26475 12.2913 1.26475 12.6727 1.6115L23 11L20 11V20C20 20.5523 19.5523 21 19 21ZM6 19H18V9.15745L12 3.7029L6 9.15745V19Z"></path></symbol><symbol viewBox="0 0 24 24" id="add-circle-fill"><path d="M12 22C6.47715 22 2 17.5228 2 12C2 6.47715 6.47715 2 12 2C17.5228 2 22 6.47715 22 12C22 17.5228 17.5228 22 12 22ZM11 11H7V13H11V17H13V13H17V11H13V7H11V11Z"></path></symbol><symbol viewBox="0 0 24 24" id="line-chart-line"><path d="M5 3V19H21V21H3V3H5ZM20.2929 6.29289L21.7071 7.70711L16 13.4142L13 10.415L8.70711 14.7071L7.29289 13.2929L13 7.58579L16 10.585L20.2929 6.29289Z"></path></symbol><symbol viewBox="0 0 24 24" id="todo-line"><path d="M17 2H20C20.5523 2 21 2.44772 21 3V21C21 21.5523 20.5523 22 20 22H4C3.44772 22 3 21.5523 3 21V3C3 2.44772 3.44772 2 4 2H7V0H9V2H15V0H17V2ZM17 4V6H15V4H9V6H7V4H5V20H19V4H17ZM7 8H17V10H7V8ZM7 12H17V14H7V12Z"></path></symbol><symbol viewBox="0 0 24 24" id="book-2-line"><path d="M21 18H6C5.44772 18 5 18.4477 5 19C5 19.5523 5.44772 20 6 20H21V22H6C4.34315 22 3 20.6569 3 19V4C3 2.89543 3.89543 2 5 2H21V18ZM5 16.05C5.16156 16.0172 5.32877 16 5.5 16H19V4H5V16.05ZM16 9H8V7H16V9Z"></path></symbol><symbol viewBox="0 0 24 24" id="delete-bin-fill"><path d="M17 6H22V8H20V21C20 21.5523 19.5523 22 19 22H5C4.44772 22 4 21.5523 4 21V8H2V6H7V3C7 2.44772 7.44772 2 8 2H16C16.5523 2 17 2.44772 17 3V6ZM9 11V17H11V11H9ZM13 11V17H15V11H13ZM9 4V6H15V4H9Z"></path></symbol><symbol viewBox="0 0 24 24" id="pencil-fill"><path d="M12.8995 6.85453L17.1421 11.0972L7.24264 20.9967H3V16.754L12.8995 6.85453ZM14.3137 5.44032L16.435 3.319C16.8256 2.92848 17.4587 2.92848 17.8492 3.319L20.6777 6.14743C21.0682 6.53795 21.0682 7.17112 20.6777 7.56164L18.5563 9.68296L14.3137 5.44032Z"></path></symbol><symbol viewBox="0 0 24 24" id="arrow-right-s-line"><path d="M13.1717 12.0007L8.22192 7.05093L9.63614 5.63672L16.0001 12.0007L9.63614 18.3646L8.22192 16.9504L13.1717 12.0007Z"></path></symbol><symbol viewBox="0 0 24 24" id="arrow-left-s-line"><path d="M10.8284 12.0007L15.7782 16.9504L14.364 18.3646L8 12.0007L14.364 5.63672L15.7782 7.05093L10.8284 12.0007Z"></path></symbol><symbol viewBox="0 0 24 24" id="close-large-fill"><path d="M10.5859 12L2.79297 4.20706L4.20718 2.79285L12.0001 10.5857L19.793 2.79285L21.2072 4.20706L13.4143 12L21.2072 19.7928L19.793 21.2071L12.0001 13.4142L4.20718 21.2071L2.79297 19.7928L10.5859 12Z"></path></symbol><symbol viewBox="0 0 24 24" id="error-warning-line"><path d="M12 22C6.47715 22 2 17.5228 2 12C2 6.47715 6.47715 2 12 2C17.5228 2 22 6.47715 22 12C22 17.5228 17.5228 22 12 22ZM12 20C16.4183 20 20 16.4183 20 12C20 7.58172 16.4183 4 12 4C7.58172 4 4 7.58172 4 12C4 16.4183 7.58172 20 12 20ZM11 15H13V17H11V15ZM11 7H13V13H11V7Z"></path></symbol><symbol viewBox="0 0 24 24" id="error-warning-fill"><path d="M12 22C6.47715 22 2 17.5228 2 12C2 6.47715 6.47715 2 12 2C17.5228 2 22 6.47715 22 12C22 17.5228 17.5228 22 12 22ZM11 15V17H13V15H11ZM11 7V13H13V7H11Z"></path></symbol><symbol viewBox="0 0 24 24" id="restaurant-line"><path d="M21 2V22H19V15H15V8C15 4.68629 17.6863 2 21 2ZM19 4.53C18.17 5 17 6.17 17 8V13H19V4.53ZM9 13.9V22H7V13.9C4.71776 13.4367 3 11.419 3 9V3H5V10H7V3H9V10H11V3H13V9C13 11.419 11.2822 13.4367 9 13.9Z"></path></symbol><symbol viewBox="0 0 24 24" id="restaurant-fill"><path d="M21 2V22H19V14H16V7C16 4.23858 18.2386 2 21 2ZM9 13.9V22H7V13.9C4.71776 13.4367 3 11.419 3 9V3H5V10H7V3H9V10H11V3H13V9C13 11.419 11.2822 13.4367 9 13.9Z"></path></symbol><symbol viewBox="0 0 24 24" id="alert-fill"><path d="M12.8659 3.00017L22.3922 19.5002C22.6684 19.9785 22.5045 20.5901 22.0262 20.8662C21.8742 20.954 21.7017 21.0002 21.5262 21.0002H2.47363C1.92135 21.0002 1.47363 20.5525 1.47363 20.0002C1.47363 19.8246 1.51984 19.6522 1.60761 19.5002L11.1339 3.00017C11.41 2.52187 12.0216 2.358 12.4999 2.63414C12.6519 2.72191 12.7782 2.84815 12.8659 3.00017ZM10.9999 16.0002V18.0002H12.9999V16.0002H10.9999ZM10.9999 9.00017V14.0002H12.9999V9.00017H10.9999Z"></path></symbol><symbol viewBox="0 0 24 24" id="user-fill"><path d="M4 22C4 17.5817 7.58172 14 12 14C16.4183 14 20 17.5817 20 22H4ZM12 13C8.685 13 6 10.315 6 7C6 3.685 8.685 1 12 1C15.315 1 18 3.685 18 7C18 10.315 15.315 13 12 13Z"></path></symbol><symbol viewBox="0 0 24 24" id="user-line"><path d="M4 22C4 17.5817 7.58172 14 12 14C16.4183 14 20 17.5817 20 22H18C18 18.6863 15.3137 16 12 16C8.68629 16 6 18.6863 6 22H4ZM12 13C8.685 13 6 10.315 6 7C6 3.685 8.685 1 12 1C15.315 1 18 3.685 18 7C18 10.315 15.315 13 12 13ZM12 11C14.21 11 16 9.21 16 7C16 4.79 14.21 3 12 3C9.79 3 8 4.79 8 7C8 9.21 9.79 11 12 11Z"></path></symbol></svg>