<svg xmlns="http://www.w3.org/2000/svg" xmlns:xlink="http://www.w3.org/1999/xlink" width="0" height="0" style="display:none;"><symbol viewBox="0 0 24 24" id="home-2-line"><path d="M19 21H5C4.44772 21 4 20.5523 4 20V11L1 11L11.3273 1.6115C11.7087 1.26475 12.2913 1.26475 12.6727 1.6115L23 11L20 11V20C20 20.5523 19.5523 21 19 21ZM6 19H18V9.15745L12 3.7029L6 9.15745V19Z"></path></symbol><symbol viewBox="0 0 24 24" id="add-circle-fill"><path d="M12 22C6.47715 22 2 17.5228 2 12C2 6.47715 6.47715 2 12 2C17.5228 2 22 6.47715 22 12C22 17.5228 17.5228 22 12 22ZM11 11H7V13H11V17H13V13H17V11H13V7H11V11Z"></path></symbol><symbol viewBox="0 0 24 24" id="line-chart-line"><path d="M5 3V19H21V21H3V3H5ZM20.2929 6.29289L21.7071 7.70711L16 13.4142L13 10.415L8.70711 14.7071L7.29289 13.2929L13 7.58579L16 10.585L20.2929 6.29289Z"></path></symbol><symbol viewBox="0 0 24 24" id="todo-line"><path d="M17 2H20C20.5523 2 21 2.44772 21 3V21C21 21.5523 20.5523 22 20 22H4C3.44772 22 3 21.5523 3 21V3C3 2.44772 3.44772 2 4 2H7V0H9V2H15V0H17V2ZM17 4V6H15V4H9V6H7V4H5V20H19V4H17ZM7 8H17V10H7V8ZM7 12H17V14H7V12Z"></path></symbol><symbol viewBox="0 0 24 24" id="book-2-line"><path d="M21 18H6C5.44772 18 5 18.4477 5 19C5 19.5523 5.44772 20 6 20H21V22H6C4.34315 22 3 20.6569 3 19V4C3 2.89543 3.89543 2 5 2H21V18ZM5 16.05C5.16156 16.0172 5.32877 16 5.5 16H19V4H5V16.05ZM16 9H8V7H16V9Z"></path></symbol></svg>